<?xml version="1.0" encoding="UTF-8"?>
<svg version="1.1" xmlns="http://www.w3.org/2000/svg" width="625" height="416">
<path d="M0 0 C206.25 0 412.5 0 625 0 C625 137.28 625 274.56 625 416 C418.75 416 212.5 416 0 416 C0 278.72 0 141.44 0 0 Z " fill="#FEFEFE" transform="translate(0,0)"/>
<path d="M0 0 C0 80.19 0 160.38 0 243 C-80.52 243 -161.04 243 -244 243 C-241.06241063 190.12339127 -232.40065842 141.76810675 -191.74902344 104.55273438 C-169.61131603 84.89949329 -144.30093996 76.92075353 -115.79745483 71.38552856 C-104.61047659 69.2127337 -93.68401552 67.03777175 -83 63 C-82.36562012 62.7623291 -81.73124023 62.5246582 -81.07763672 62.27978516 C-65.34110537 56.26117074 -51.70941699 46.97295595 -39 36 C-38.030625 35.21367187 -37.06125 34.42734375 -36.0625 33.6171875 C-26.386908 25.69579786 -17.67497674 16.82535438 -8.91137695 7.92553711 C-8.13910263 7.1431794 -8.13910263 7.1431794 -7.35122681 6.34501648 C-5.92973773 4.90344332 -4.51200462 3.45816936 -3.09448242 2.01269531 C-1 0 -1 0 0 0 Z " fill="#FBAE3C" transform="translate(625,173)"/>
<path d="M0 0 C80.52 0 161.04 0 244 0 C241.36 4.62 238.72 9.24 236 14 C217.05093492 47.80168246 206.01348274 80.19275933 198 118 C197.44256528 120.62264556 196.88366197 123.2449688 196.32421875 125.8671875 C196.09951904 126.92663574 195.87481934 127.98608398 195.64331055 129.07763672 C192.34237527 144.07277723 187.8058021 161.37828502 175.40625 171.46484375 C166.4281992 177.19272356 156.60619376 179.16734708 146.09350586 179.06591797 C145.4419754 179.06124512 144.79044495 179.05657227 144.11917114 179.05175781 C142.71585806 179.04132656 141.31255993 179.02868846 139.90928459 179.01403427 C137.67434809 178.99178435 135.43949932 178.97785081 133.20448303 178.96633911 C126.85340496 178.93297886 120.50246994 178.89160881 114.15161133 178.82861328 C110.25316811 178.79053955 106.35487243 178.76781303 102.45627022 178.75430679 C100.98573256 178.74635566 99.51521219 178.73289833 98.04478264 178.71337509 C69.97891976 178.34745785 49.02387854 189.44325169 29.32324219 208.63330078 C22.01295683 215.98050678 15.55659322 223.89687936 9.40014648 232.22729492 C8.89684814 232.90638916 8.3935498 233.5854834 7.875 234.28515625 C7.22144531 235.18053101 7.22144531 235.18053101 6.5546875 236.09399414 C4.54861031 238.55339185 2.24421287 240.75578713 0 243 C0 162.81 0 82.62 0 0 Z " fill="#FBAE3C" transform="translate(0,0)"/>
</svg>
