<?xml version="1.0" encoding="UTF-8"?>
<svg version="1.1" xmlns="http://www.w3.org/2000/svg" width="1006" height="964">
<path d="M0 0 C331.98 0 663.96 0 1006 0 C1006 318.12 1006 636.24 1006 964 C674.02 964 342.04 964 0 964 C0 645.88 0 327.76 0 0 Z " fill="#FEFEFE" transform="translate(0,0)"/>
<path d="M0 0 C0.66 0 1.32 0 2 0 C2 304.92 2 609.84 2 924 C-274.21 924 -550.42 924 -835 924 C-835 923.01 -835 922.02 -835 921 C-834.34 921 -833.68 921 -833 921 C-833 920.34 -833 919.68 -833 919 C-832.34 919 -831.68 919 -831 919 C-831 917.68 -831 916.36 -831 915 C-830.01 915 -829.02 915 -828 915 C-828 914.01 -828 913.02 -828 912 C-827.34 912 -826.68 912 -826 912 C-826 910.68 -826 909.36 -826 908 C-825.01 908 -824.02 908 -823 908 C-823 906.35 -823 904.7 -823 903 C-822.34 903 -821.68 903 -821 903 C-821 902.01 -821 901.02 -821 900 C-820.34 900 -819.68 900 -819 900 C-819 898.68 -819 897.36 -819 896 C-818.34 896 -817.68 896 -817 896 C-816.67 895.01 -816.34 894.02 -816 893 C-815.34 893 -814.68 893 -814 893 C-814 891.35 -814 889.7 -814 888 C-813.34 888 -812.68 888 -812 888 C-812 886.68 -812 885.36 -812 884 C-811.01 884 -810.02 884 -809 884 C-809 883.34 -809 882.68 -809 882 C-808.34 882 -807.68 882 -807 882 C-807 880.35 -807 878.7 -807 877 C-806.34 877 -805.68 877 -805 877 C-805 875.35 -805 873.7 -805 872 C-804.01 872 -803.02 872 -802 872 C-802 871.34 -802 870.68 -802 870 C-801.34 870 -800.68 870 -800 870 C-800 868.35 -800 866.7 -800 865 C-799.34 865 -798.68 865 -798 865 C-798 864.34 -798 863.68 -798 863 C-797.01 863 -796.02 863 -795 863 C-795 861.35 -795 859.7 -795 858 C-794.34 858 -793.68 858 -793 858 C-793 856.35 -793 854.7 -793 853 C-792.01 853 -791.02 853 -790 853 C-790 851.68 -790 850.36 -790 849 C-789.34 849 -788.68 849 -788 849 C-788 848.34 -788 847.68 -788 847 C-787.34 847 -786.68 847 -786 847 C-785.505 844.525 -785.505 844.525 -785 842 C-784.34 842 -783.68 842 -783 842 C-783 840.35 -783 838.7 -783 837 C-782.34 837 -781.68 837 -781 837 C-781 835.35 -781 833.7 -781 832 C-780.34 832 -779.68 832 -779 832 C-779 831.01 -779 830.02 -779 829 C-778.34 829 -777.68 829 -777 829 C-777 827.68 -777 826.36 -777 825 C-776.01 825 -775.02 825 -774 825 C-774 823.35 -774 821.7 -774 820 C-773.34 820 -772.68 820 -772 820 C-772 818.35 -772 816.7 -772 815 C-771.01 815 -770.02 815 -769 815 C-769 813.68 -769 812.36 -769 811 C-768.34 811 -767.68 811 -767 811 C-767 809.35 -767 807.7 -767 806 C-766.01 806 -765.02 806 -764 806 C-764 805.34 -764 804.68 -764 804 C-763.34 804 -762.68 804 -762 804 C-762 802.35 -762 800.7 -762 799 C-761.34 799 -760.68 799 -760 799 C-760 797.35 -760 795.7 -760 794 C-759.01 794 -758.02 794 -757 794 C-757 792.68 -757 791.36 -757 790 C-756.34 790 -755.68 790 -755 790 C-755 788.35 -755 786.7 -755 785 C-754.34 785 -753.68 785 -753 785 C-753 783.35 -753 781.7 -753 780 C-752.01 780 -751.02 780 -750 780 C-750 778.68 -750 777.36 -750 776 C-749.34 776 -748.68 776 -748 776 C-748 774.35 -748 772.7 -748 771 C-747.34 771 -746.68 771 -746 771 C-746 769.35 -746 767.7 -746 766 C-745.01 766 -744.02 766 -743 766 C-743 764.35 -743 762.7 -743 761 C-742.34 761 -741.68 761 -741 761 C-741 759.68 -741 758.36 -741 757 C-740.01 757 -739.02 757 -738 757 C-738 755.35 -738 753.7 -738 752 C-737.34 752 -736.68 752 -736 752 C-736 749.69 -736 747.38 -736 745 C-735.34 745 -734.68 745 -734 745 C-734 743.35 -734 741.7 -734 740 C-733.01 740 -732.02 740 -731 740 C-731 738.68 -731 737.36 -731 736 C-730.34 736 -729.68 736 -729 736 C-729 734.35 -729 732.7 -729 731 C-728.34 731 -727.68 731 -727 731 C-727 728.36 -727 725.72 -727 723 C-726.34 723 -725.68 723 -725 723 C-725 721.68 -725 720.36 -725 719 C-724.01 719 -723.02 719 -722 719 C-722 716.69 -722 714.38 -722 712 C-721.34 712 -720.68 712 -720 712 C-720 710.35 -720 708.7 -720 707 C-719.01 707 -718.02 707 -717 707 C-717 704.69 -717 702.38 -717 700 C-716.34 700 -715.68 700 -715 700 C-715 697.69 -715 695.38 -715 693 C-714.34 693 -713.68 693 -713 693 C-713 690.69 -713 688.38 -713 686 C-712.01 686 -711.02 686 -710 686 C-710 684.35 -710 682.7 -710 681 C-709.34 681 -708.68 681 -708 681 C-708 677.7 -708 674.4 -708 671 C-707.34 671 -706.68 671 -706 671 C-706 669.02 -706 667.04 -706 665 C-705.01 665 -704.02 665 -703 665 C-703 662.36 -703 659.72 -703 657 C-702.34 657 -701.68 657 -701 657 C-701 654.03 -701 651.06 -701 648 C-700.01 648 -699.02 648 -698 648 C-698 645.69 -698 643.38 -698 641 C-697.34 641 -696.68 641 -696 641 C-696 638.03 -696 635.06 -696 632 C-695.34 632 -694.68 632 -694 632 C-694 628.7 -694 625.4 -694 622 C-693.01 622 -692.02 622 -691 622 C-691 619.03 -691 616.06 -691 613 C-690.34 613 -689.68 613 -689 613 C-689 609.7 -689 606.4 -689 603 C-688.34 603 -687.68 603 -687 603 C-687 599.04 -687 595.08 -687 591 C-686.34 591 -685.68 591 -685 591 C-685 587.37 -685 583.74 -685 580 C-684.01 580 -683.02 580 -682 580 C-682 576.04 -682 572.08 -682 568 C-681.34 568 -680.68 568 -680 568 C-680 564.04 -680 560.08 -680 556 C-679.34 556 -678.68 556 -678 556 C-678 552.04 -678 548.08 -678 544 C-677.01 544 -676.02 544 -675 544 C-675 540.37 -675 536.74 -675 533 C-674.34 533 -673.68 533 -673 533 C-673 528.38 -673 523.76 -673 519 C-672.01 519 -671.02 519 -670 519 C-670 515.04 -670 511.08 -670 507 C-669.34 507 -668.68 507 -668 507 C-668 503.7 -668 500.4 -668 497 C-667.01 497 -666.02 497 -665 497 C-665 494.03 -665 491.06 -665 488 C-664.34 488 -663.68 488 -663 488 C-663 484.04 -663 480.08 -663 476 C-662.34 476 -661.68 476 -661 476 C-661 472.7 -661 469.4 -661 466 C-660.34 466 -659.68 466 -659 466 C-659 463.03 -659 460.06 -659 457 C-658.34 457 -657.68 457 -657 457 C-657 454.69 -657 452.38 -657 450 C-656.01 450 -655.02 450 -654 450 C-654 446.7 -654 443.4 -654 440 C-653.34 440 -652.68 440 -652 440 C-652 438.02 -652 436.04 -652 434 C-651.01 434 -650.02 434 -649 434 C-649 430.7 -649 427.4 -649 424 C-648.34 424 -647.68 424 -647 424 C-646.1558062 420.02022924 -645.55312735 416.02992782 -645 412 C-644.01 412 -643.02 412 -642 412 C-642 410.35 -642 408.7 -642 407 C-641.34 407 -640.68 407 -640 407 C-640 405.68 -640 404.36 -640 403 C-639.01 403 -638.02 403 -637 403 C-637 400.69 -637 398.38 -637 396 C-636.34 396 -635.68 396 -635 396 C-635 394.35 -635 392.7 -635 391 C-634.01 391 -633.02 391 -632 391 C-632 389.35 -632 387.7 -632 386 C-631.34 386 -630.68 386 -630 386 C-630 385.34 -630 384.68 -630 384 C-629.01 384 -628.02 384 -627 384 C-626.855625 383.2575 -626.71125 382.515 -626.5625 381.75 C-626.09812508 379.47972261 -625.58136431 377.24240521 -625 375 C-624.34 375 -623.68 375 -623 375 C-623 373.35 -623 371.7 -623 370 C-622.01 370 -621.02 370 -620 370 C-620 369.34 -620 368.68 -620 368 C-619.34 368 -618.68 368 -618 368 C-618 366.35 -618 364.7 -618 363 C-617.34 363 -616.68 363 -616 363 C-616 362.34 -616 361.68 -616 361 C-615.34 361 -614.68 361 -614 361 C-614 360.01 -614 359.02 -614 358 C-613.01 358 -612.02 358 -611 358 C-611 357.34 -611 356.68 -611 356 C-610.34 356 -609.68 356 -609 356 C-609 355.01 -609 354.02 -609 353 C-608.01 353 -607.02 353 -606 353 C-606 352.34 -606 351.68 -606 351 C-605.34 351 -604.68 351 -604 351 C-604 350.34 -604 349.68 -604 349 C-603.34 349 -602.68 349 -602 349 C-602 348.34 -602 347.68 -602 347 C-600.625 345.375 -600.625 345.375 -599 344 C-598.34 344 -597.68 344 -597 344 C-597 343.01 -597 342.02 -597 341 C-596.34 341 -595.68 341 -595 341 C-595 340.34 -595 339.68 -595 339 C-594.01 339 -593.02 339 -592 339 C-592 338.34 -592 337.68 -592 337 C-591.34 337 -590.68 337 -590 337 C-590 336.34 -590 335.68 -590 335 C-587.75 332.375 -587.75 332.375 -585 330 C-583.68 330 -582.36 330 -581 330 C-581 329.34 -581 328.68 -581 328 C-580.01 328 -579.02 328 -578 328 C-578 327.01 -578 326.02 -578 325 C-576.35 325 -574.7 325 -573 325 C-573 324.34 -573 323.68 -573 323 C-571.68 323 -570.36 323 -569 323 C-569 322.01 -569 321.02 -569 320 C-567.35 320 -565.7 320 -564 320 C-564 319.34 -564 318.68 -564 318 C-562.35 318 -560.7 318 -559 318 C-559 317.34 -559 316.68 -559 316 C-556.69 316 -554.38 316 -552 316 C-552 315.01 -552 314.02 -552 313 C-550.68 313 -549.36 313 -548 313 C-548 312.34 -548 311.68 -548 311 C-545.69 311 -543.38 311 -541 311 C-541 310.34 -541 309.68 -541 309 C-538.36 309 -535.72 309 -533 309 C-533 308.01 -533 307.02 -533 306 C-530.03 306 -527.06 306 -524 306 C-524 305.34 -524 304.68 -524 304 C-521.03 304 -518.06 304 -515 304 C-515 303.34 -515 302.68 -515 302 C-511.7 302 -508.4 302 -505 302 C-505 301.01 -505 300.02 -505 299 C-500.38 299 -495.76 299 -491 299 C-491 298.34 -491 297.68 -491 297 C-485.39 297 -479.78 297 -474 297 C-474 296.01 -474 295.02 -474 294 C-468.06 294 -462.12 294 -456 294 C-456 293.34 -456 292.68 -456 292 C-448.08 292 -440.16 292 -432 292 C-432 291.34 -432 290.68 -432 290 C-423.42 290 -414.84 290 -406 290 C-406 289.34 -406 288.68 -406 288 C-396.76 288 -387.52 288 -378 288 C-378 287.01 -378 286.02 -378 285 C-370.08 285 -362.16 285 -354 285 C-354 284.34 -354 283.68 -354 283 C-347.07 283 -340.14 283 -333 283 C-333 282.34 -333 281.68 -333 281 C-326.73 281 -320.46 281 -314 281 C-314 280.01 -314 279.02 -314 278 C-310.04 278 -306.08 278 -302 278 C-302 277.34 -302 276.68 -302 276 C-298.04 276 -294.08 276 -290 276 C-290 275.01 -290 274.02 -290 273 C-287.03 273 -284.06 273 -281 273 C-281 272.34 -281 271.68 -281 271 C-277.04 271 -273.08 271 -269 271 C-269 270.34 -269 269.68 -269 269 C-266.69 269 -264.38 269 -262 269 C-262 268.34 -262 267.68 -262 267 C-259.03 267 -256.06 267 -253 267 C-253 266.01 -253 265.02 -253 264 C-250.36 264 -247.72 264 -245 264 C-245 263.34 -245 262.68 -245 262 C-240.126739 260.4087311 -236.19209404 259.78807779 -231 260 C-231 259.01 -231 258.02 -231 257 C-229.35 257 -227.7 257 -226 257 C-226 256.34 -226 255.68 -226 255 C-224.68 255 -223.36 255 -222 255 C-222 254.01 -222 253.02 -222 252 C-219.69 252 -217.38 252 -215 252 C-215 251.34 -215 250.68 -215 250 C-213.35 250 -211.7 250 -210 250 C-210 249.01 -210 248.02 -210 247 C-208.68 247 -207.36 247 -206 247 C-206 246.34 -206 245.68 -206 245 C-204.35 245 -202.7 245 -201 245 C-201 244.34 -201 243.68 -201 243 C-199.35 243 -197.7 243 -196 243 C-196 242.34 -196 241.68 -196 241 C-194.35 241 -192.7 241 -191 241 C-191 240.01 -191 239.02 -191 238 C-189.68 238 -188.36 238 -187 238 C-187 237.01 -187 236.02 -187 235 C-185.35 235 -183.7 235 -182 235 C-182 234.34 -182 233.68 -182 233 C-180.35 233 -178.7 233 -177 233 C-177 232.34 -177 231.68 -177 231 C-175.35 231 -173.7 231 -172 231 C-172 230.34 -172 229.68 -172 229 C-171.34 229 -170.68 229 -170 229 C-170 228.01 -170 227.02 -170 226 C-168.35 226 -166.7 226 -165 226 C-165 225.34 -165 224.68 -165 224 C-163.68 224 -162.36 224 -161 224 C-161 223.34 -161 222.68 -161 222 C-160.34 222 -159.68 222 -159 222 C-159 221.01 -159 220.02 -159 219 C-157.02 219 -155.04 219 -153 219 C-153 218.34 -153 217.68 -153 217 C-152.34 217 -151.68 217 -151 217 C-151 216.34 -151 215.68 -151 215 C-149.68 215 -148.36 215 -147 215 C-147 214.01 -147 213.02 -147 212 C-146.01 212 -145.02 212 -144 212 C-144 211.01 -144 210.02 -144 209 C-142.68 209 -141.36 209 -140 209 C-140 208.34 -140 207.68 -140 207 C-139.01 207 -138.02 207 -137 207 C-137 206.34 -137 205.68 -137 205 C-135.68 205 -134.36 205 -133 205 C-133 204.34 -133 203.68 -133 203 C-132.01 203 -131.02 203 -130 203 C-130 202.01 -130 201.02 -130 200 C-128.35 200 -126.7 200 -125 200 C-125 199.34 -125 198.68 -125 198 C-124.34 198 -123.68 198 -123 198 C-123 197.34 -123 196.68 -123 196 C-122.34 196 -121.68 196 -121 196 C-121 195.01 -121 194.02 -121 193 C-119.35 193 -117.7 193 -116 193 C-116 192.34 -116 191.68 -116 191 C-115.34 191 -114.68 191 -114 191 C-113.67 190.01 -113.34 189.02 -113 188 C-112.34 188 -111.68 188 -111 188 C-111 187.34 -111 186.68 -111 186 C-110.34 186 -109.68 186 -109 186 C-109 185.34 -109 184.68 -109 184 C-107.35 184 -105.7 184 -104 184 C-104 183.01 -104 182.02 -104 181 C-103.34 181 -102.68 181 -102 181 C-102 180.34 -102 179.68 -102 179 C-101.01 179 -100.02 179 -99 179 C-99 178.01 -99 177.02 -99 176 C-97.68 176 -96.36 176 -95 176 C-95 175.34 -95 174.68 -95 174 C-94.01 174 -93.02 174 -92 174 C-92 173.34 -92 172.68 -92 172 C-91.34 172 -90.68 172 -90 172 C-90 171.01 -90 170.02 -90 169 C-89.34 169 -88.68 169 -88 169 C-88 168.34 -88 167.68 -88 167 C-87.34 167 -86.68 167 -86 167 C-86 166.34 -86 165.68 -86 165 C-84.35 165 -82.7 165 -81 165 C-81 164.34 -81 163.68 -81 163 C-80.01 163 -79.02 163 -78 163 C-78 162.01 -78 161.02 -78 160 C-77.34 160 -76.68 160 -76 160 C-76 159.34 -76 158.68 -76 158 C-75.01 158 -74.02 158 -73 158 C-73 157.01 -73 156.02 -73 155 C-72.34 155 -71.68 155 -71 155 C-71 154.34 -71 153.68 -71 153 C-70.34 153 -69.68 153 -69 153 C-69 152.34 -69 151.68 -69 151 C-67.35 151 -65.7 151 -64 151 C-64 150.01 -64 149.02 -64 148 C-63.34 148 -62.68 148 -62 148 C-62 147.34 -62 146.68 -62 146 C-61.01 146 -60.02 146 -59 146 C-59 145.01 -59 144.02 -59 143 C-58.34 143 -57.68 143 -57 143 C-57 142.34 -57 141.68 -57 141 C-56.34 141 -55.68 141 -55 141 C-55 140.34 -55 139.68 -55 139 C-54.01 139 -53.02 139 -52 139 C-52 138.34 -52 137.68 -52 137 C-51.34 137 -50.68 137 -50 137 C-50 136.01 -50 135.02 -50 134 C-49.34 134 -48.68 134 -48 134 C-48 133.34 -48 132.68 -48 132 C-47.01 132 -46.02 132 -45 132 C-45 131.34 -45 130.68 -45 130 C-43.35 130 -41.7 130 -40 130 C-40 129.01 -40 128.02 -40 127 C-39.34 127 -38.68 127 -38 127 C-38 126.34 -38 125.68 -38 125 C-37.34 125 -36.68 125 -36 125 C-36 124.34 -36 123.68 -36 123 C-34.625 121.375 -34.625 121.375 -33 120 C-32.34 120 -31.68 120 -31 120 C-31 119.34 -31 118.68 -31 118 C-30.01 118 -29.02 118 -28 118 C-27.34 116.35 -26.68 114.7 -26 113 C-25.34 113 -24.68 113 -24 113 C-24 112.34 -24 111.68 -24 111 C-23.34 111 -22.68 111 -22 111 C-21.67 110.01 -21.34 109.02 -21 108 C-20.34 108 -19.68 108 -19 108 C-19 107.34 -19 106.68 -19 106 C-17.35 106 -15.7 106 -14 106 C-14 105.01 -14 104.02 -14 103 C-13.34 103 -12.68 103 -12 103 C-12 102.34 -12 101.68 -12 101 C-11.34 101 -10.68 101 -10 101 C-10 100.34 -10 99.68 -10 99 C-9.34 99 -8.68 99 -8 99 C-8 98.34 -8 97.68 -8 97 C-7.01 97 -6.02 97 -5 97 C-5 96.01 -5 95.02 -5 94 C-4.34 94 -3.68 94 -3 94 C-3 93.34 -3 92.68 -3 92 C-2.01 92 -1.02 92 0 92 C0 61.64 0 31.28 0 0 Z " fill="#70C3F2" transform="translate(985,20)"/>
<path d="M0 0 C0.66 0 1.32 0 2 0 C2 304.92 2 609.84 2 924 C-274.21 924 -550.42 924 -835 924 C-835 923.34 -835 922.68 -835 922 C-559.45 922.33 -283.9 922.66 0 923 C-0.33 649.76 -0.66 376.52 -1 95 C-3.64 97.97 -6.28 100.94 -9 104 C-10.65 104 -12.3 104 -14 104 C-13.34 103.67 -12.68 103.34 -12 103 C-12 102.34 -12 101.68 -12 101 C-11.34 101 -10.68 101 -10 101 C-10 100.34 -10 99.68 -10 99 C-9.34 99 -8.68 99 -8 99 C-8 98.34 -8 97.68 -8 97 C-7.01 97 -6.02 97 -5 97 C-5 96.01 -5 95.02 -5 94 C-4.34 94 -3.68 94 -3 94 C-3 93.34 -3 92.68 -3 92 C-2.01 92 -1.02 92 0 92 C0 61.64 0 31.28 0 0 Z " fill="#81BEE1" transform="translate(985,20)"/>
<path d="M0 0 C0.99 0.33 1.98 0.66 3 1 C2.85957123 2.64630328 2.71250671 4.29204179 2.5625 5.9375 C2.48128906 6.85402344 2.40007812 7.77054688 2.31640625 8.71484375 C2 11 2 11 1 12 C0.71693766 14.54756104 0.55184214 17.09510022 0.37890625 19.65234375 C0 22 0 22 -2 24 C-2.45662153 26.19291082 -2.820412 28.40585889 -3.125 30.625 C-3.29257812 31.81351563 -3.46015625 33.00203125 -3.6328125 34.2265625 C-3.75398438 35.14179687 -3.87515625 36.05703125 -4 37 C-4.66 37 -5.32 37 -6 37 C-6 40.63 -6 44.26 -6 48 C-6.99 48 -7.98 48 -9 48 C-9 51.96 -9 55.92 -9 60 C-9.66 60 -10.32 60 -11 60 C-11 63.63 -11 67.26 -11 71 C-11.33 71 -11.66 71 -12 71 C-12 67.04 -12 63.08 -12 59 C-11.34 59 -10.68 59 -10 59 C-10 55.04 -10 51.08 -10 47 C-9.01 47 -8.02 47 -7 47 C-7 43.37 -7 39.74 -7 36 C-6.34 36 -5.68 36 -5 36 C-5 31.38 -5 26.76 -5 22 C-4.01 22 -3.02 22 -2 22 C-2 18.04 -2 14.08 -2 10 C-1.34 10 -0.68 10 0 10 C0 6.7 0 3.4 0 0 Z " fill="#99D0EF" transform="translate(317,517)"/>
<path d="M0 0 C6.93 0 13.86 0 21 0 C21 0.33 21 0.66 21 1 C19.91460938 1.04898437 18.82921875 1.09796875 17.7109375 1.1484375 C16.26560216 1.22351986 14.82029081 1.29906528 13.375 1.375 C12.66214844 1.4059375 11.94929687 1.436875 11.21484375 1.46875 C7.940855 1.64896956 5.26641679 1.90607803 2.15234375 3.00390625 C-2.45789453 4.46067299 -7.00389732 4.42829121 -11.8125 4.5625 C-13.71497845 4.62215076 -15.61733916 4.68573211 -17.51953125 4.75390625 C-18.35589111 4.77783447 -19.19225098 4.8017627 -20.05395508 4.82641602 C-22.004516 4.79068695 -22.004516 4.79068695 -23 6 C-25.14386657 6.15858842 -27.29266838 6.25129298 -29.44140625 6.31640625 C-31.39916992 6.37924805 -31.39916992 6.37924805 -33.39648438 6.44335938 C-34.7851533 6.48317608 -36.17382522 6.52288825 -37.5625 6.5625 C-38.95509183 6.60567989 -40.34767028 6.649294 -41.74023438 6.69335938 C-45.16004801 6.79985876 -48.57993763 6.90186923 -52 7 C-52 6.34 -52 5.68 -52 5 C-42.76 5 -33.52 5 -24 5 C-24 4.01 -24 3.02 -24 2 C-16.08 2 -8.16 2 0 2 C0 1.34 0 0.68 0 0 Z " fill="#7EC1E7" transform="translate(631,303)"/>
<path d="M0 0 C0.66 0.33 1.32 0.66 2 1 C1.85957123 2.64630328 1.71250671 4.29204179 1.5625 5.9375 C1.48128906 6.85402344 1.40007812 7.77054688 1.31640625 8.71484375 C1 11 1 11 0 12 C-0.53924529 14.81052298 -1.03674358 17.61438783 -1.5 20.4375 C-2.86860536 28.73721072 -2.86860536 28.73721072 -4 31 C-3.60061233 33.09821215 -3.60061233 33.09821215 -3 35 C-4.32 35.99 -5.64 36.98 -7 38 C-7 35.03 -7 32.06 -7 29 C-6.34 29 -5.68 29 -5 29 C-5 25.7 -5 22.4 -5 19 C-4.01 19 -3.02 19 -2 19 C-2 16.03 -2 13.06 -2 10 C-1.34 10 -0.68 10 0 10 C0 6.7 0 3.4 0 0 Z " fill="#8DC8EA" transform="translate(296,623)"/>
<path d="M0 0 C0.33 0 0.66 0 1 0 C1 5.28 1 10.56 1 16 C-0.32 16.33 -1.64 16.66 -3 17 C-3 18.98 -3 20.96 -3 23 C-3.99 23.33 -4.98 23.66 -6 24 C-6 26.97 -6 29.94 -6 33 C-6.66 33 -7.32 33 -8 33 C-8 35.97 -8 38.94 -8 42 C-8.33 42 -8.66 42 -9 42 C-9 38.7 -9 35.4 -9 32 C-8.34 32 -7.68 32 -7 32 C-7 29.03 -7 26.06 -7 23 C-6.34 23 -5.68 23 -5 23 C-5 20.69 -5 18.38 -5 16 C-4.01 16 -3.02 16 -2 16 C-2 12.7 -2 9.4 -2 6 C-1.34 6 -0.68 6 0 6 C0 4.02 0 2.04 0 0 Z " fill="#A9DAF2" transform="translate(333,454)"/>
<path d="M0 0 C0.66 0.33 1.32 0.66 2 1 C-0.29956741 10.00663904 -3.74599526 17.99551469 -10 25 C-10.66 25.33 -11.32 25.66 -12 26 C-12 24.35 -12 22.7 -12 21 C-11.01 21 -10.02 21 -9 21 C-9 19.35 -9 17.7 -9 16 C-8.34 16 -7.68 16 -7 16 C-7 15.34 -7 14.68 -7 14 C-6.01 14 -5.02 14 -4 14 C-3.855625 13.2575 -3.71125 12.515 -3.5625 11.75 C-3.09812508 9.47972261 -2.58136431 7.24240521 -2 5 C-1.34 5 -0.68 5 0 5 C0 3.35 0 1.7 0 0 Z " fill="#87C7EA" transform="translate(362,390)"/>
<path d="M0 0 C0.66 0.33 1.32 0.66 2 1 C1.85966889 2.97956441 1.7125877 4.95865141 1.5625 6.9375 C1.48128906 8.03964844 1.40007812 9.14179687 1.31640625 10.27734375 C1 13 1 13 0 14 C-0.23287008 15.68183948 -0.41264166 17.3712416 -0.5625 19.0625 C-0.68818359 20.44115234 -0.68818359 20.44115234 -0.81640625 21.84765625 C-0.87699219 22.55792969 -0.93757813 23.26820313 -1 24 C-1.99 24 -2.98 24 -4 24 C-4 27.63 -4 31.26 -4 35 C-4.33 35 -4.66 35 -5 35 C-5 31.04 -5 27.08 -5 23 C-4.34 23 -3.68 23 -3 23 C-3 19.37 -3 15.74 -3 12 C-2.01 12 -1.02 12 0 12 C0 8.04 0 4.08 0 0 Z " fill="#A1D3F0" transform="translate(303,588)"/>
<path d="M0 0 C2.97 0 5.94 0 9 0 C6.53264116 2.46735884 4.27828479 2.9072384 1 4 C0.34 4.66 -0.32 5.32 -1 6 C-4.0390625 6.1953125 -4.0390625 6.1953125 -7.625 6.125 C-8.81351562 6.10695313 -10.00203125 6.08890625 -11.2265625 6.0703125 C-12.14179688 6.04710937 -13.05703125 6.02390625 -14 6 C-14 6.66 -14 7.32 -14 8 C-15.65 8 -17.3 8 -19 8 C-17.68 7.67 -16.36 7.34 -15 7 C-15 6.34 -15 5.68 -15 5 C-12.69 5 -10.38 5 -8 5 C-8 4.34 -8 3.68 -8 3 C-5.36 3 -2.72 3 0 3 C0 2.01 0 1.02 0 0 Z " fill="#92CDF0" transform="translate(452,326)"/>
<path d="M0 0 C6.93 0 13.86 0 21 0 C21 0.33 21 0.66 21 1 C19.87980469 1.06058594 18.75960937 1.12117188 17.60546875 1.18359375 C16.13280016 1.26801424 14.66014456 1.35266149 13.1875 1.4375 C12.08051758 1.49647461 12.08051758 1.49647461 10.95117188 1.55664062 C7.76928658 1.74381035 5.03837622 1.98720793 2 3 C0.0093556 3.14986411 -1.98535391 3.24828038 -3.98046875 3.31640625 C-5.14384766 3.35830078 -6.30722656 3.40019531 -7.50585938 3.44335938 C-8.72080078 3.48267578 -9.93574219 3.52199219 -11.1875 3.5625 C-12.41404297 3.60568359 -13.64058594 3.64886719 -14.90429688 3.69335938 C-17.93608381 3.7995309 -20.96795315 3.90157952 -24 4 C-24 3.34 -24 2.68 -24 2 C-16.08 2 -8.16 2 0 2 C0 1.34 0 0.68 0 0 Z " fill="#98CBE8" transform="translate(631,303)"/>
<path d="M0 0 C1.32 0.33 2.64 0.66 4 1 C2.71034824 2.37562854 1.37310707 3.70766393 0 5 C-0.66 5 -1.32 5 -2 5 C-2.1546875 5.928125 -2.1546875 5.928125 -2.3125 6.875 C-3 9 -3 9 -6 11 C-8.6875 11.125 -8.6875 11.125 -11 11 C-11.33 11.99 -11.66 12.98 -12 14 C-12.66 14 -13.32 14 -14 14 C-14 13.34 -14 12.68 -14 12 C-13.34 12 -12.68 12 -12 12 C-12 11.01 -12 10.02 -12 9 C-10.35 9 -8.7 9 -7 9 C-7 8.34 -7 7.68 -7 7 C-6.34 7 -5.68 7 -5 7 C-4.67 6.01 -4.34 5.02 -4 4 C-3.34 4 -2.68 4 -2 4 C-2 3.34 -2 2.68 -2 2 C-1.34 2 -0.68 2 0 2 C0 1.34 0 0.68 0 0 Z " fill="#8CC8EA" transform="translate(876,204)"/>
<path d="M0 0 C0.99 0.33 1.98 0.66 3 1 C2.06558465 2.27310312 1.12732889 3.543388 0.1875 4.8125 C-0.59560547 5.87404297 -0.59560547 5.87404297 -1.39453125 6.95703125 C-2.84806582 8.80666283 -4.20878378 10.47556067 -6 12 C-8.6875 12.1875 -8.6875 12.1875 -11 12 C-10.34 11.67 -9.68 11.34 -9 11 C-9 10.34 -9 9.68 -9 9 C-8.34 9 -7.68 9 -7 9 C-7 8.34 -7 7.68 -7 7 C-6.34 7 -5.68 7 -5 7 C-5 6.34 -5 5.68 -5 5 C-4.01 5 -3.02 5 -2 5 C-2 4.01 -2 3.02 -2 2 C-1.34 2 -0.68 2 0 2 C0 1.34 0 0.68 0 0 Z " fill="#89CAED" transform="translate(982,112)"/>
<path d="M0 0 C1.32 0.33 2.64 0.66 4 1 C1.4378513 2.60473003 -1.12470555 4.20880182 -3.6875 5.8125 C-4.40873047 6.26431641 -5.12996094 6.71613281 -5.87304688 7.18164062 C-9.56196728 9.48932142 -13.25818621 11.7785287 -17 14 C-17 12 -17 12 -14.75 9.375 C-12 7 -12 7 -8 7 C-8 6.34 -8 5.68 -8 5 C-7.01 5 -6.02 5 -5 5 C-5 4.01 -5 3.02 -5 2 C-3.35 2 -1.7 2 0 2 C0 1.34 0 0.68 0 0 Z " fill="#8BC7E8" transform="translate(412,343)"/>
<path d="M0 0 C0.66 0 1.32 0 2 0 C1.5256902 4.2687882 -0.80716564 6.31511656 -4 9 C-6.8125 9.8125 -6.8125 9.8125 -9 10 C-9 10.99 -9 11.98 -9 13 C-9.99 13.33 -10.98 13.66 -12 14 C-12 13.34 -12 12.68 -12 12 C-11.34 12 -10.68 12 -10 12 C-10 11.01 -10 10.02 -10 9 C-9.01 9 -8.02 9 -7 9 C-7 8.34 -7 7.68 -7 7 C-6.34 7 -5.68 7 -5 7 C-5 6.01 -5 5.02 -5 4 C-4.01 4 -3.02 4 -2 4 C-2 3.34 -2 2.68 -2 2 C-1.34 2 -0.68 2 0 2 C0 1.34 0 0.68 0 0 Z " fill="#8BC9EE" transform="translate(381,369)"/>
<path d="M0 0 C0.99 0.33 1.98 0.66 3 1 C1.75491753 4.7352474 0.05380051 5.60058531 -3 8 C-3.53625 8.7425 -4.0725 9.485 -4.625 10.25 C-5.07875 10.8275 -5.5325 11.405 -6 12 C-6.99 12 -7.98 12 -9 12 C-9 11.01 -9 10.02 -9 9 C-8.34 9 -7.68 9 -7 9 C-7 8.34 -7 7.68 -7 7 C-6.34 7 -5.68 7 -5 7 C-5 6.34 -5 5.68 -5 5 C-3.625 3.375 -3.625 3.375 -2 2 C-1.34 2 -0.68 2 0 2 C0 1.34 0 0.68 0 0 Z " fill="#84C6EB" transform="translate(954,138)"/>
<path d="M0 0 C2 1 2 1 2.83203125 3.26171875 C3.05485031 6.8941876 1.97706449 8.04575172 -0.3125 10.8125 C-0.94800781 11.60269531 -1.58351562 12.39289062 -2.23828125 13.20703125 C-2.81964844 13.79871094 -3.40101563 14.39039063 -4 15 C-4.66 15 -5.32 15 -6 15 C-6.33 15.66 -6.66 16.32 -7 17 C-7 15.35 -7 13.7 -7 12 C-6.01 12 -5.02 12 -4 12 C-4 11.34 -4 10.68 -4 10 C-3.34 10 -2.68 10 -2 10 C-2 8.35 -2 6.7 -2 5 C-1.34 5 -0.68 5 0 5 C0 3.35 0 1.7 0 0 Z " fill="#8AC8EB" transform="translate(225,814)"/>
<path d="M0 0 C0.99 0.33 1.98 0.66 3 1 C1.36272637 2.80100099 0.0956064 3.95500875 -2.125 5 C-4.3530435 5.91202978 -4.3530435 5.91202978 -5 9 C-5.66 9 -6.32 9 -7 9 C-7.33 8.34 -7.66 7.68 -8 7 C-9.98 7 -11.96 7 -14 7 C-12.68 6.67 -11.36 6.34 -10 6 C-10 5.34 -10 4.68 -10 4 C-8.35 4 -6.7 4 -5 4 C-5 3.34 -5 2.68 -5 2 C-3.35 2 -1.7 2 0 2 C0 1.34 0 0.68 0 0 Z " fill="#8AC9ED" transform="translate(789,261)"/>
<path d="M0 0 C1.65 0 3.3 0 5 0 C0.8611111 5.22498031 -2.98598452 8.99299226 -9 12 C-8.34 10.35 -7.68 8.7 -7 7 C-6.34 7 -5.68 7 -5 7 C-5 6.34 -5 5.68 -5 5 C-4.34 5 -3.68 5 -3 5 C-2.67 4.01 -2.34 3.02 -2 2 C-1.34 2 -0.68 2 0 2 C0 1.34 0 0.68 0 0 Z " fill="#86C7EA" transform="translate(966,126)"/>
<path d="M0 0 C0.33 0 0.66 0 1 0 C0.9129995 1.62600941 0.8048219 3.25089678 0.6875 4.875 C0.62949219 5.77992188 0.57148438 6.68484375 0.51171875 7.6171875 C0 10 0 10 -3 12 C-4.07136051 14.30144109 -5.07989717 16.6340213 -6 19 C-6.33 19 -6.66 19 -7 19 C-7 17.35 -7 15.7 -7 14 C-6.34 14 -5.68 14 -5 14 C-5 12.35 -5 10.7 -5 9 C-4.01 9 -3.02 9 -2 9 C-2 7.35 -2 5.7 -2 4 C-1.34 4 -0.68 4 0 4 C0 2.68 0 1.36 0 0 Z " fill="#8CC8EA" transform="translate(244,777)"/>
<path d="M0 0 C0.33 0.99 0.66 1.98 1 3 C-0.32 3 -1.64 3 -3 3 C-3 3.66 -3 4.32 -3 5 C-3.99 5 -4.98 5 -6 5 C-6.226875 5.639375 -6.45375 6.27875 -6.6875 6.9375 C-8 9 -8 9 -10.625 9.75 C-11.40875 9.8325 -12.1925 9.915 -13 10 C-13 10.99 -13 11.98 -13 13 C-14.65 13.33 -16.3 13.66 -18 14 C-18 13.34 -18 12.68 -18 12 C-16.68 12 -15.36 12 -14 12 C-14 11.01 -14 10.02 -14 9 C-13.01 9 -12.02 9 -11 9 C-11 8.01 -11 7.02 -11 6 C-9.68 6 -8.36 6 -7 6 C-7 5.34 -7 4.68 -7 4 C-6.01 4 -5.02 4 -4 4 C-4 3.34 -4 2.68 -4 2 C-2.68 2 -1.36 2 0 2 C0 1.34 0 0.68 0 0 Z " fill="#99D0EF" transform="translate(852,223)"/>
<path d="M0 0 C0.33 0.66 0.66 1.32 1 2 C-3.62 2 -8.24 2 -13 2 C-13 2.99 -13 3.98 -13 5 C-16.3 5 -19.6 5 -23 5 C-23 4.34 -23 3.68 -23 3 C-20.94921875 2.77213542 -18.8984375 2.54427083 -16.84765625 2.31640625 C-14.98859771 2.18113386 -14.98859771 2.18113386 -14 1 C-11.65012738 0.76472227 -9.29443961 0.58613583 -6.9375 0.4375 C-5.64714844 0.35371094 -4.35679687 0.26992188 -3.02734375 0.18359375 C-2.02832031 0.12300781 -1.02929688 0.06242187 0 0 Z " fill="#E2F8FE" transform="translate(493,317)"/>
<path d="M0 0 C0.66 0 1.32 0 2 0 C2.32644414 4.16216275 2.40650982 6.36313462 0.125 9.9375 C-2 12 -2 12 -4 12 C-4 14.31 -4 16.62 -4 19 C-4.33 19 -4.66 19 -5 19 C-5 16.36 -5 13.72 -5 11 C-4.34 11 -3.68 11 -3 11 C-3 9.68 -3 8.36 -3 7 C-2.01 7 -1.02 7 0 7 C0 4.69 0 2.38 0 0 Z " fill="#97CEEC" transform="translate(263,732)"/>
<path d="M0 0 C1.65 0 3.3 0 5 0 C5 0.66 5 1.32 5 2 C3.68 2 2.36 2 1 2 C0.34 3.32 -0.32 4.64 -1 6 C-1.33 5.01 -1.66 4.02 -2 3 C-1.34 3 -0.68 3 0 3 C0 2.01 0 1.02 0 0 Z M-6 6 C-4.68 6.33 -3.36 6.66 -2 7 C-4.3125 9.0625 -4.3125 9.0625 -7 11 C-7.99 10.67 -8.98 10.34 -10 10 C-9.67 9.34 -9.34 8.68 -9 8 C-8.01 8 -7.02 8 -6 8 C-6 7.34 -6 6.68 -6 6 Z " fill="#82C5E9" transform="translate(855,220)"/>
<path d="M0 0 C0 0.66 0 1.32 0 2 C-1.65 2 -3.3 2 -5 2 C-5 2.66 -5 3.32 -5 4 C-5.66 4 -6.32 4 -7 4 C-7 4.66 -7 5.32 -7 6 C-8.375 7.625 -8.375 7.625 -10 9 C-10.66 9 -11.32 9 -12 9 C-11.690625 8.401875 -11.38125 7.80375 -11.0625 7.1875 C-9.89790296 4.91043228 -9.89790296 4.91043228 -9 2 C-5.5647952 -0.29013653 -4.014669 -0.17842973 0 0 Z " fill="#E4F9FE" transform="translate(881,202)"/>
<path d="M0 0 C0.33 0 0.66 0 1 0 C1 1.65 1 3.3 1 5 C0.34 5 -0.32 5 -1 5 C-0.87625 6.3921875 -0.87625 6.3921875 -0.75 7.8125 C-1 11 -1 11 -2.9375 12.6875 C-3.618125 13.120625 -4.29875 13.55375 -5 14 C-5.33 14.99 -5.66 15.98 -6 17 C-6.99 16.67 -7.98 16.34 -9 16 C-8.34 16 -7.68 16 -7 16 C-7 14.68 -7 13.36 -7 12 C-6.34 12 -5.68 12 -5 12 C-4.67 11.01 -4.34 10.02 -4 9 C-3.34 9 -2.68 9 -2 9 C-2 7.35 -2 5.7 -2 4 C-1.34 4 -0.68 4 0 4 C0 2.68 0 1.36 0 0 Z " fill="#9ACFED" transform="translate(173,904)"/>
<path d="M0 0 C0.66 0 1.32 0 2 0 C1.75 3.375 1.75 3.375 1 7 C-1 8.1875 -1 8.1875 -3 9 C-3.36162029 10.32594105 -3.69728039 11.65938457 -4 13 C-4.99 13.33 -5.98 13.66 -7 14 C-7 13.34 -7 12.68 -7 12 C-6.34 12 -5.68 12 -5 12 C-5 10.35 -5 8.7 -5 7 C-4.34 7 -3.68 7 -3 7 C-3 6.34 -3 5.68 -3 5 C-2.01 5 -1.02 5 0 5 C0 3.35 0 1.7 0 0 Z " fill="#8CC8EC" transform="translate(190,878)"/>
<path d="M0 0 C0.33 0 0.66 0 1 0 C1 1.65 1 3.3 1 5 C0.34 5 -0.32 5 -1 5 C-1 6.98 -1 8.96 -1 11 C-1.99 10.67 -2.98 10.34 -4 10 C-4 10.66 -4 11.32 -4 12 C-4.66 12 -5.32 12 -6 12 C-6.33 13.32 -6.66 14.64 -7 16 C-7 14.02 -7 12.04 -7 10 C-5.35 9.67 -3.7 9.34 -2 9 C-2 7.35 -2 5.7 -2 4 C-1.34 4 -0.68 4 0 4 C0 2.68 0 1.36 0 0 Z " fill="#BBE2F7" transform="translate(201,857)"/>
<path d="M0 0 C0.33 0.99 0.66 1.98 1 3 C0.34 3 -0.32 3 -1 3 C-1 4.65 -1 6.3 -1 8 C-1.99 8 -2.98 8 -4 8 C-4 9.32 -4 10.64 -4 12 C-4.66 12 -5.32 12 -6 12 C-6 12.99 -6 13.98 -6 15 C-6.66 14.67 -7.32 14.34 -8 14 C-7.01 11.69 -6.02 9.38 -5 7 C-4.01 7 -3.02 7 -2 7 C-2 5.35 -2 3.7 -2 2 C-1.34 2 -0.68 2 0 2 C0 1.34 0 0.68 0 0 Z " fill="#D0EFFB" transform="translate(163,920)"/>
<path d="M0 0 C0.66 0.33 1.32 0.66 2 1 C1.34 3.64 0.68 6.28 0 9 C-1.32 9.33 -2.64 9.66 -4 10 C-4.33 10.66 -4.66 11.32 -5 12 C-5 11.01 -5 10.02 -5 9 C-4.34 9 -3.68 9 -3 9 C-3 7.68 -3 6.36 -3 5 C-2.01 5 -1.02 5 0 5 C0 3.35 0 1.7 0 0 Z " fill="#9CD2F0" transform="translate(211,840)"/>
<path d="M0 0 C0.66 0.33 1.32 0.66 2 1 C-0.85276137 3.93200474 -3.65079784 6.64315404 -7 9 C-7.66 8.34 -8.32 7.68 -9 7 C-8.34 7 -7.68 7 -7 7 C-7 6.34 -7 5.68 -7 5 C-6.01 5 -5.02 5 -4 5 C-4 4.01 -4 3.02 -4 2 C-2.68 2 -1.36 2 0 2 C0 1.34 0 0.68 0 0 Z " fill="#9DD1EE" transform="translate(890,194)"/>
<path d="M0 0 C0.99 0.33 1.98 0.66 3 1 C3.33 2.65 3.66 4.3 4 6 C2.68 6.99 1.36 7.98 0 9 C0 6.03 0 3.06 0 0 Z " fill="#7FC4E9" transform="translate(289,652)"/>
<path d="M0 0 C0.33 0.99 0.66 1.98 1 3 C-4.41538462 7.06153846 -4.41538462 7.06153846 -7.375 6.75 C-7.91125 6.5025 -8.4475 6.255 -9 6 C-8.34 6 -7.68 6 -7 6 C-7 5.34 -7 4.68 -7 4 C-6.34 4 -5.68 4 -5 4 C-5 3.34 -5 2.68 -5 2 C-3.35 2 -1.7 2 0 2 C0 1.34 0 0.68 0 0 Z " fill="#9BD2EE" transform="translate(904,183)"/>
<path d="M0 0 C1.39195915 4.17587745 -0.17676781 6.13474776 -2 10 C-2.66 10 -3.32 10 -4 10 C-4.33 10.99 -4.66 11.98 -5 13 C-5 11.35 -5 9.7 -5 8 C-4.01 8 -3.02 8 -2 8 C-2 5.69 -2 3.38 -2 1 C-1.34 0.67 -0.68 0.34 0 0 Z " fill="#7BC2E8" transform="translate(261,743)"/>
<path d="M0 0 C0.99 0 1.98 0 3 0 C2.3125 2.375 2.3125 2.375 1 5 C-1.625 6.3125 -1.625 6.3125 -4 7 C-4 6.01 -4 5.02 -4 4 C-3.34 4 -2.68 4 -2 4 C-2 3.34 -2 2.68 -2 2 C-1.34 2 -0.68 2 0 2 C0 1.34 0 0.68 0 0 Z " fill="#91CDEA" transform="translate(930,159)"/>
<path d="M0 0 C0.66 0.33 1.32 0.66 2 1 C1.67 3.64 1.34 6.28 1 9 C0.01 9.33 -0.98 9.66 -2 10 C-2.33 10.66 -2.66 11.32 -3 12 C-3 10.35 -3 8.7 -3 7 C-2.01 7 -1.02 7 0 7 C0 4.69 0 2.38 0 0 Z " fill="#8DC8E8" transform="translate(268,720)"/>
<path d="M0 0 C2.31 0 4.62 0 7 0 C7 0.66 7 1.32 7 2 C4.69 2.66 2.38 3.32 0 4 C0 2.68 0 1.36 0 0 Z " fill="#87C8F0" transform="translate(763,272)"/>
<path d="M0 0 C0.66 0.33 1.32 0.66 2 1 C0.08864614 4.53600465 -1.62642766 6.78972846 -5 9 C-5.66 8.34 -6.32 7.68 -7 7 C-6.34 7 -5.68 7 -5 7 C-5 6.34 -5 5.68 -5 5 C-4.01 5 -3.02 5 -2 5 C-2 4.01 -2 3.02 -2 2 C-1.34 2 -0.68 2 0 2 C0 1.34 0 0.68 0 0 Z " fill="#8FCBEC" transform="translate(914,173)"/>
<path d="M0 0 C0.33 0 0.66 0 1 0 C1 1.65 1 3.3 1 5 C0.34 5 -0.32 5 -1 5 C-1 6.65 -1 8.3 -1 10 C-1.66 10 -2.32 10 -3 10 C-3 8.02 -3 6.04 -3 4 C-2.01 3.67 -1.02 3.34 0 3 C0 2.01 0 1.02 0 0 Z " fill="#DEF7FE" transform="translate(191,873)"/>
<path d="M0 0 C0.33 0 0.66 0 1 0 C1 2.97 1 5.94 1 9 C0.34 9 -0.32 9 -1 9 C-1 10.65 -1 12.3 -1 14 C-1.33 14 -1.66 14 -2 14 C-2.21192221 8.80790596 -1.5912689 4.873261 0 0 Z " fill="#DBF7FE" transform="translate(276,692)"/>
<path d="M0 0 C1.65 0 3.3 0 5 0 C3.68 0.33 2.36 0.66 1 1 C1 1.99 1 2.98 1 4 C-0.98 4.33 -2.96 4.66 -5 5 C-5 4.01 -5 3.02 -5 2 C-3.35 2 -1.7 2 0 2 C0 1.34 0 0.68 0 0 Z " fill="#A5D5EF" transform="translate(803,253)"/>
<path d="M0 0 C0.66 0.33 1.32 0.66 2 1 C1.625 3.9375 1.625 3.9375 1 7 C0.01 7.495 0.01 7.495 -1 8 C-1.66 8.99 -2.32 9.98 -3 11 C-3 9.02 -3 7.04 -3 5 C-2.01 5 -1.02 5 0 5 C0 3.35 0 1.7 0 0 Z " fill="#93CCEA" transform="translate(275,701)"/>
<path d="M0 0 C0.99 0 1.98 0 3 0 C2.67 0.99 2.34 1.98 2 3 C1.01 3 0.02 3 -1 3 C-1 3.66 -1 4.32 -1 5 C-1.99 5 -2.98 5 -4 5 C-4.33 5.66 -4.66 6.32 -5 7 C-5 6.01 -5 5.02 -5 4 C-4.34 4 -3.68 4 -3 4 C-3 3.34 -3 2.68 -3 2 C-2.01 2 -1.02 2 0 2 C0 1.34 0 0.68 0 0 Z " fill="#91CBE9" transform="translate(940,150)"/>
<path d="M0 0 C0.66 0 1.32 0 2 0 C1.34 2.31 0.68 4.62 0 7 C-0.66 7 -1.32 7 -2 7 C-2.33 7.66 -2.66 8.32 -3 9 C-3 7.35 -3 5.7 -3 4 C-2.01 4 -1.02 4 0 4 C0 2.68 0 1.36 0 0 Z " fill="#98CDED" transform="translate(216,831)"/>
<path d="M0 0 C0.33 1.32 0.66 2.64 1 4 C0.34 4 -0.32 4 -1 4 C-1 5.65 -1 7.3 -1 9 C-1.99 9 -2.98 9 -4 9 C-3.34 6.69 -2.68 4.38 -2 2 C-1.34 2 -0.68 2 0 2 C0 1.34 0 0.68 0 0 Z " fill="#DDF6FD" transform="translate(243,777)"/>
<path d="M0 0 C0.66 0.33 1.32 0.66 2 1 C2.25 4.3125 2.25 4.3125 2 8 C0 9.9375 0 9.9375 -2 11 C-2 9.68 -2 8.36 -2 7 C-1.34 7 -0.68 7 0 7 C0 4.69 0 2.38 0 0 Z " fill="#84C4E7" transform="translate(249,765)"/>
<path d="M0 0 C0.66 0.33 1.32 0.66 2 1 C1.64950425 4.24208567 1.43778819 5.61527704 -1.0625 7.8125 C-1.701875 8.204375 -2.34125 8.59625 -3 9 C-3 7.35 -3 5.7 -3 4 C-2.01 4 -1.02 4 0 4 C0 2.68 0 1.36 0 0 Z " fill="#87C7EB" transform="translate(254,756)"/>
<path d="M0 0 C0.33 0.99 0.66 1.98 1 3 C0.01 3 -0.98 3 -2 3 C-2 3.66 -2 4.32 -2 5 C-3.32 5 -4.64 5 -6 5 C-6 4.34 -6 3.68 -6 3 C-4.02 2.01 -2.04 1.02 0 0 Z " fill="#DCF8FE" transform="translate(406,345)"/>
</svg>
