<?xml version="1.0" encoding="UTF-8"?>
<svg version="1.1" xmlns="http://www.w3.org/2000/svg" width="410" height="392">
<path d="M0 0 C135.3 0 270.6 0 410 0 C410 129.36 410 258.72 410 392 C274.7 392 139.4 392 0 392 C0 262.64 0 133.28 0 0 Z " fill="#F9AD3C" transform="translate(0,0)"/>
<path d="M0 0 C134.97 0 269.94 0 409 0 C409 13.2 409 26.4 409 40 C398 50 398 50 396 50 C396 50.66 396 51.32 396 52 C395.34 52 394.68 52 394 52 C394 52.66 394 53.32 394 54 C392.77734375 55.26953125 392.77734375 55.26953125 390.9375 56.8125 C388.20888159 59.12206358 385.49551738 61.44001386 382.83203125 63.82421875 C369.52164766 75.67077675 355.3653805 86.92482214 340 96 C338.5459375 96.88558594 338.5459375 96.88558594 337.0625 97.7890625 C330.55858272 101.68809454 323.99134506 105.06751915 317 108 C316.05125 108.40992187 315.1025 108.81984375 314.125 109.2421875 C286.89734395 120.42497481 255.85741792 123.06653532 226.6875 124.5 C214.21700352 125.11530715 202.0945288 126.81938464 190 130 C189.31583008 130.17934082 188.63166016 130.35868164 187.92675781 130.54345703 C169.83094023 135.35856695 155.31983091 143.24422413 145 159.5 C131.57064372 183.18838708 126.75238929 210.61932163 122.48828125 237.2421875 C121.76556248 241.32410309 120.79965429 245.33819838 119.828125 249.3671875 C119.2373699 251.9587075 118.70754788 254.5207541 118.234375 257.1328125 C115.61216642 271.26274421 110.98414259 284.54350436 106 298 C105.72397949 298.74765625 105.44795898 299.4953125 105.16357422 300.265625 C103.55819624 304.56095069 101.82269347 308.7932357 100 313 C99.64856934 313.81355957 99.29713867 314.62711914 98.93505859 315.46533203 C93.30378129 328.39875667 87.08582453 340.80755312 80 353 C79.21326781 354.37354109 78.4268069 355.74723761 77.640625 357.12109375 C70.76635531 368.99381118 63.3820218 380.39968003 56 392 C37.52 392 19.04 392 0 392 C0 262.64 0 133.28 0 0 Z " fill="#FEFEFE" transform="translate(0,0)"/>
<path d="M0 0 C-3.78469716 3.82561281 -7.81194068 3.51048816 -12.875 3.625 C-18.90079721 3.78237941 -18.90079721 3.78237941 -24.875 4.49609375 C-29.60334456 5.25853931 -34.34334934 5.28627716 -39.125 5.4375 C-52.4072748 5.48064432 -52.4072748 5.48064432 -65 9 C-67.2072923 9.07092842 -69.41667452 9.08415025 -71.625 9.0625 C-72.81351563 9.05347656 -74.00203125 9.04445312 -75.2265625 9.03515625 C-76.14179688 9.02355469 -77.05703125 9.01195312 -78 9 C-78 8.67 -78 8.34 -78 8 C-62.69844677 5.39990921 -47.52422909 3.48373107 -32.0390625 2.4375 C-25.92724525 2.02012645 -19.85592152 1.38049912 -13.77929688 0.60888672 C-9.14079179 0.04111718 -4.66284066 -0.07269462 0 0 Z " fill="#EFB359" transform="translate(270,120)"/>
<path d="M0 0 C1.084021 0.00523682 2.16804199 0.01047363 3.28491211 0.01586914 C4.45473633 0.0190918 5.62456055 0.02231445 6.82983398 0.02563477 C8.0615332 0.03401367 9.29323242 0.04239258 10.56225586 0.05102539 C12.41560547 0.05779297 12.41560547 0.05779297 14.30639648 0.06469727 C17.37089703 0.07652931 20.43530307 0.09301366 23.49975586 0.11352539 C23.49975586 0.44352539 23.49975586 0.77352539 23.49975586 1.11352539 C13.73634159 2.1632453 3.99867281 3.15855615 -5.81274414 3.61352539 C-15.82398371 4.08820573 -25.61857796 5.43663658 -35.50024414 7.11352539 C-35.17024414 6.12352539 -34.84024414 5.13352539 -34.50024414 4.11352539 C-33.6455957 4.05293945 -32.79094727 3.99235352 -31.91040039 3.92993164 C-30.80567383 3.84614258 -29.70094727 3.76235352 -28.56274414 3.67602539 C-27.4605957 3.59481445 -26.35844727 3.51360352 -25.22290039 3.42993164 C-22.58914511 3.40934455 -22.58914511 3.40934455 -21.50024414 2.11352539 C-20.17138341 1.96966435 -18.83575827 1.88676251 -17.50024414 1.83227539 C-16.69586914 1.79489258 -15.89149414 1.75750977 -15.06274414 1.71899414 C-13.35441081 1.64868164 -11.64607747 1.57836914 -9.93774414 1.50805664 C-9.13336914 1.47067383 -8.32899414 1.43329102 -7.50024414 1.39477539 C-6.38649414 1.34933594 -6.38649414 1.34933594 -5.25024414 1.30297852 C-2.78720912 1.03633298 -2.72811821 0.12387218 0 0 Z " fill="#FDF3D3" transform="translate(232.500244140625,120.886474609375)"/>
<path d="M0 0 C0 3 0 3 -2 5.1875 C-2.45375 5.6103125 -2.9075 6.033125 -3.375 6.46875 C-4.59723323 7.62046977 -5.77837453 8.81603782 -6.9375 10.03125 C-7.9584375 11.09859375 -7.9584375 11.09859375 -9 12.1875 C-9.9590625 13.19876953 -9.9590625 13.19876953 -10.9375 14.23046875 C-13.19140567 16.16421737 -15.250418 16.93899545 -18 18 C-19.35827971 19.64639965 -20.69254251 21.31295807 -22 23 C-24.25 24.3125 -24.25 24.3125 -26 25 C-26.99 24.34 -27.98 23.68 -29 23 C-27.99582031 22.26136719 -26.99164063 21.52273437 -25.95703125 20.76171875 C-17.02028721 14.14694799 -8.38860858 7.29694034 0 0 Z " fill="#F4B254" transform="translate(385,61)"/>
<path d="M0 0 C0 0.33 0 0.66 0 1 C-0.56509277 1.08564209 -1.13018555 1.17128418 -1.71240234 1.25952148 C-4.26714633 1.64869818 -6.82106747 2.04303485 -9.375 2.4375 C-10.70917969 2.63956055 -10.70917969 2.63956055 -12.0703125 2.84570312 C-13.34648437 3.04389648 -13.34648437 3.04389648 -14.6484375 3.24609375 C-15.82672119 3.42676392 -15.82672119 3.42676392 -17.02880859 3.61108398 C-19.06611684 3.92238238 -19.06611684 3.92238238 -21 5 C-23.2072923 5.07092842 -25.41667452 5.08415025 -27.625 5.0625 C-28.81351563 5.05347656 -30.00203125 5.04445312 -31.2265625 5.03515625 C-32.14179688 5.02355469 -33.05703125 5.01195312 -34 5 C-34 4.67 -34 4.34 -34 4 C-29.83491163 3.32321814 -25.66771325 2.66040852 -21.5 2 C-20.32695312 1.80921875 -19.15390625 1.6184375 -17.9453125 1.421875 C-11.88691677 0.46886893 -6.13322218 -0.24289989 0 0 Z " fill="#F1BB69" transform="translate(226,124)"/>
<path d="M0 0 C-3.61358402 2.05045607 -7.43678004 3.06041853 -11.4375 4.0625 C-12.13746094 4.2387793 -12.83742188 4.41505859 -13.55859375 4.59667969 C-19.99663005 6.13912588 -26.38392929 6.77342224 -33 7 C-32.67 6.34 -32.34 5.68 -32 5 C-29.75 4.62109375 -29.75 4.62109375 -27 4.4375 C-23.69240381 4.46519462 -23.69240381 4.46519462 -21 3 C-18.41852762 2.43125095 -15.84836144 1.91554361 -13.25 1.4375 C-12.53328125 1.29892578 -11.8165625 1.16035156 -11.078125 1.01757812 C-7.33381676 0.31896179 -3.82807128 -0.17331819 0 0 Z " fill="#FEF8DD" transform="translate(304,112)"/>
<path d="M0 0 C0.66 0 1.32 0 2 0 C0.28294261 10.74074198 -1.59446954 21.38836919 -4 32 C-4.33 32 -4.66 32 -5 32 C-4.67 26.72 -4.34 21.44 -4 16 C-3.34 16 -2.68 16 -2 16 C-2.04125 15.030625 -2.0825 14.06125 -2.125 13.0625 C-2.14348933 8.55110276 -1.10517422 4.35162348 0 0 Z " fill="#FEF5D7" transform="translate(119,240)"/>
<path d="M0 0 C0.66 0 1.32 0 2 0 C0.69578464 5.84920826 -1.14410917 11.05414209 -3.625 16.5 C-4.11226563 17.59054687 -4.11226563 17.59054687 -4.609375 18.703125 C-5.40042985 20.47136526 -6.19938107 22.23606952 -7 24 C-7.33 24 -7.66 24 -8 24 C-8.26134667 20.01622908 -7.61193118 17.72419434 -5.6875 14.25 C-3.24109369 9.62128805 -1.48878292 5.01102544 0 0 Z " fill="#FEF7DA" transform="translate(103,298)"/>
<path d="M0 0 C-1.77029446 1.29240512 -3.54125498 2.58389793 -5.3125 3.875 C-6.29863281 4.59429687 -7.28476563 5.31359375 -8.30078125 6.0546875 C-10.17523115 7.4055935 -12.07752993 8.71835329 -14 10 C-14 9.01 -14 8.02 -14 7 C-13.34 7 -12.68 7 -12 7 C-12 6.34 -12 5.68 -12 5 C-11.34 5 -10.68 5 -10 5 C-10 4.01 -10 3.02 -10 2 C-4.10714286 -1.34821429 -4.10714286 -1.34821429 0 0 Z " fill="#FEF7DE" transform="translate(167,138)"/>
<path d="M0 0 C1.43219686 5.05344257 2.32061848 11.07041839 0.10546875 15.984375 C-1 17.625 -1 17.625 -3 20 C-4.37344385 15.60155678 -3.24307502 12.07495445 -2.0625 7.75 C-1.86720703 7.00492187 -1.67191406 6.25984375 -1.47070312 5.4921875 C-0.98895802 3.65920614 -0.49560775 1.82928182 0 0 Z " fill="#F0B55B" transform="translate(117,258)"/>
<path d="M0 0 C-4.65492322 3.56877447 -9.34849564 3.68175995 -15 4 C-12.83900627 1.83900627 -11.4789582 1.28436284 -8.625 0.3125 C-7.46871094 -0.09548828 -7.46871094 -0.09548828 -6.2890625 -0.51171875 C-3.79944692 -1.04278009 -2.38446982 -0.81115526 0 0 Z " fill="#F0B762" transform="translate(186,132)"/>
<path d="M0 0 C1.35680872 4.49084576 0.04427943 6.91144114 -2 11 C-2.66 11 -3.32 11 -4 11 C-4 11.99 -4 12.98 -4 14 C-4.66 14 -5.32 14 -6 14 C-4.50829734 9.0276578 -2.39542583 4.58154261 0 0 Z " fill="#F1B55D" transform="translate(91,330)"/>
<path d="M0 0 C0 3 0 3 -2.1875 5.5 C-4.71652879 7.74802559 -6.96219189 9.52214741 -10 11 C-10.66 10.67 -11.32 10.34 -12 10 C-8.04 6.7 -4.08 3.4 0 0 Z " fill="#EFB562" transform="translate(385,61)"/>
<path d="M0 0 C0.99 0.33 1.98 0.66 3 1 C-0.465 3.97 -0.465 3.97 -4 7 C-4.33 5.68 -4.66 4.36 -5 3 C-2.6875 1.4375 -2.6875 1.4375 0 0 Z " fill="#FEF5D9" transform="translate(385,58)"/>
<path d="M0 0 C0.33 1.32 0.66 2.64 1 4 C0.34 4 -0.32 4 -1 4 C-1 5.32 -1 6.64 -1 8 C-1.66 8 -2.32 8 -3 8 C-3.33 9.32 -3.66 10.64 -4 12 C-4.66 12 -5.32 12 -6 12 C-4.43358249 7.69235185 -2.31663844 3.93828536 0 0 Z " fill="#F1B761" transform="translate(70,368)"/>
<path d="M0 0 C0.33 0 0.66 0 1 0 C1 1.65 1 3.3 1 5 C0.34 5 -0.32 5 -1 5 C-0.938125 6.11375 -0.938125 6.11375 -0.875 7.25 C-1.00398134 10.08758952 -1.57051222 11.58773938 -3 14 C-3.66 14 -4.32 14 -5 14 C-4.54636829 12.41531323 -4.08688548 10.83230076 -3.625 9.25 C-3.36976562 8.36828125 -3.11453125 7.4865625 -2.8515625 6.578125 C-2.0790066 4.23919428 -1.16374324 2.16557438 0 0 Z " fill="#F1B862" transform="translate(102,306)"/>
<path d="M0 0 C0.66 0.33 1.32 0.66 2 1 C-1.3 3.64 -4.6 6.28 -8 9 C-8.33 8.01 -8.66 7.02 -9 6 C-8.360625 5.896875 -7.72125 5.79375 -7.0625 5.6875 C-6.381875 5.460625 -5.70125 5.23375 -5 5 C-4.67 4.01 -4.34 3.02 -4 2 C-2.0625 0.75 -2.0625 0.75 0 0 Z " fill="#FEF4D8" transform="translate(366,75)"/>
<path d="M0 0 C0.66 0.33 1.32 0.66 2 1 C0.02 4.63 -1.96 8.26 -4 12 C-4.33 10.68 -4.66 9.36 -5 8 C-4.34 7.34 -3.68 6.68 -3 6 C-2.3574765 3.93125966 -2.3574765 3.93125966 -2 2 C-1.34 2 -0.68 2 0 2 C0 1.34 0 0.68 0 0 Z " fill="#FEF5D5" transform="translate(81,346)"/>
<path d="M0 0 C2 1 2 1 3 3 C-3.96428571 6.34821429 -3.96428571 6.34821429 -8 5 C-6.71475739 4.13619741 -5.42157581 3.28419631 -4.125 2.4375 C-3.04605469 1.72400391 -3.04605469 1.72400391 -1.9453125 0.99609375 C-1.30335938 0.66738281 -0.66140625 0.33867188 0 0 Z " fill="#F1B964" transform="translate(336,97)"/>
<path d="M0 0 C-1.36983503 3.16115776 -1.9890638 3.9927092 -5 6 C-7.6875 6.125 -7.6875 6.125 -10 6 C-8.66666667 5 -7.33333333 4 -6 3 C-5.29875 2.443125 -4.5975 1.88625 -3.875 1.3125 C-2 0 -2 0 0 0 Z " fill="#F2B55C" transform="translate(348,91)"/>
<path d="M0 0 C0.66 0.33 1.32 0.66 2 1 C0.8553125 1.8971875 0.8553125 1.8971875 -0.3125 2.8125 C-2.3483575 4.46959332 -4.1978279 6.10297674 -6 8 C-6.66 7.34 -7.32 6.68 -8 6 C-5.36 4.02 -2.72 2.04 0 0 Z " fill="#F0B660" transform="translate(165,138)"/>
<path d="M0 0 C0.88492145 2.47778006 1.11637742 3.66056586 0.25 6.1875 C-1 8 -1 8 -4 9 C-2.80100302 5.9168649 -1.52299523 2.93720508 0 0 Z " fill="#EFB55D" transform="translate(80,351)"/>
</svg>
